<svg xmlns="http://www.w3.org/2000/svg" width="512" height="512" fill="none"><path fill="#fff" fill-rule="evenodd" d="M259.53 73.75c1.32 1.4 7.14 5.56 12.92 9.22 50.85 32.22 68.85 48.7 81.6 74.71 18.25 37.28 13.5 72.77-14.76 110.25-21.34 28.3-23.58 41.06-10.8 61.64 16.93 27.26 17.17 40.64 1.09 62.52-6.6 8.97-7.34 10.63-7.34 16.29 0 5.4-.98 5.75-4.17 1.48-2.53-3.4-3.34-13.77-1.59-20.44 4.6-17.52 2.2-24.28-12.85-36.11-10.12-7.95-14.28-14.01-17.79-25.88-3.73-12.64-4.01-12.52-6.32 2.87-.63 4.2-3.37 14.96-6.1 23.93-7.74 25.45-7.16 31.88 4.67 51.7 8.33 13.96 8.76 24.7 1.28 31.84l-3.06 2.91.7-2.76c2.15-8.68-1.17-14.2-15.97-26.53-19.56-16.3-22.02-22.24-23.03-55.7-.74-24.53-3.58-37.33-6.64-29.9-7.5 18.17-12.35 25.07-24.8 35.3-19.48 16-20.52 18.05-19.52 38.48.67 13.86-.48 20.88-1.94 11.78-.33-2.08-2.44-6.35-4.67-9.47-14.7-20.53-14.48-34.47 1.07-66.7 13.87-28.74 12.83-39.64-6.1-63.5-38.88-49-37.64-100.8 3.43-143.27 12.23-12.66 22.94-20.75 56.13-42.49 8.8-5.76 16.85-11.44 17.9-12.6 2.48-2.77 3.73-2.7 6.66.43Zm-52.06 150.52c-7.76 3.51-10.82 7.7-7.82 10.7.9.9 1.95.58 4.52-1.38 1.84-1.4 5.25-3.1 7.57-3.77 3.23-.93 4.3-1.77 4.56-3.56.62-4.31-2.28-4.97-8.83-2Zm89.75-1.03c-3.17 1.88-2.14 4.76 2.11 5.9 2.12.58 5.56 2.2 7.63 3.6 4.47 3.04 6.77 2.58 6.32-1.27-.54-4.63-12.14-10.57-16.06-8.23Zm-85.04 31.72c-7.96 4.94-9.02 20.55-2.02 29.97 6.77 9.12 18.04 7.34 21.71-3.43 5.65-16.57-7.4-34.16-19.69-26.54Zm75.26.47c-13.6 9.2-9.1 37.82 5.56 35.44 17.42-2.83 18.79-37.69 1.48-37.69-2.2 0-5.07.92-7.04 2.25Zm-59.97 102.43c0 1.98-.44 2.4-2.24 2.14-2.5-.35-3.66-3.65-1.7-4.86 2.03-1.25 3.94.06 3.94 2.72Zm64.6 6.84c2.57 3.93-.09 17.48-3.43 17.48-2.84 0-5.9-14.25-3.75-17.53 2.08-3.17 5.08-3.15 7.18.05Zm-78.97 7.16c.34 1.36.36 4.35.05 6.65-.41 2.96-.02 5.43 1.31 8.4 3.79 8.46-3.06 5.8-7.38-2.87-3.29-6.6-3.33-10.23-.17-13.4 2.85-2.84 5.3-2.36 6.2 1.22Zm89.63 6.92c1.12 1.12-.47 3.4-2.37 3.4-1.84 0-2.57-1.99-1.23-3.33.83-.83 2.8-.87 3.6-.07Zm-55.84 32.05c.65 1.7-1.01 5.35-2.42 5.35-1.65 0-2.8-3.42-1.92-5.73.9-2.41 3.34-2.2 4.34.38Z" class="fills"/></svg>